
<svg version="1.1" viewBox="0 0 900 900" width="225" height="225" xmlns="http://www.w3.org/2000/svg">
<path transform="translate(0)" d="m0 0h900v900h-900z" fill="#FDFDFD"/>
<path transform="translate(485,241)" d="m0 0h78l15 4 16 8 10 8 7 8 9 15 12 23 12 22 18 34 16 29 10 21 5 17 2 12v19l-4 18-6 16-13 25-12 22-13 25-12 22-12 23-12 20-11 12-11 8-12 5-11 3-7 1h-72l-2-1-1-30 2-5 12-3 11-7 10-16 12-23 10-19 14-26 24-44 7-17 3-15v-9l-2-12-5-13-13-26-12-22-12-23-12-22-16-30-9-12-7-5-15-5-2-2v-30z" fill="#01C752"/>
<path transform="translate(337,241)" d="m0 0h77l2 2v19l-1 13-9 3-12 6-7 7-16 29-12 23-9 16-8 16-13 24-12 23-4 12-2 11v11l4 18 10 21 12 22 13 25 12 22 14 27 11 19 6 7 12 6 10 2 1 2v16l-1 17-4 1h-71l-15-3-12-5-13-9-9-9-10-15-17-33-12-22-18-34-12-22-8-16-5-13-3-15-1-8v-14l3-17 5-16 8-17 12-22 13-24 20-38 6-10 6-12 9-16 9-10 9-8 16-8z" fill="#01C752"/>
</svg>
